<svg xmlns="http://www.w3.org/2000/svg" viewBox="0 0 196.06 37"><defs><style>.cls-1{fill:#e60012;}.cls-2{fill:#f39800;fill-rule:evenodd;}.cls-3{fill:#fff;}.cls-4{fill:#251e1c;}</style></defs><title>logo_brand_ci_red</title><g id="레이어_2" data-name="레이어 2"><g id="image"><path class="cls-1" d="M38.8,18.5C38.8,28.72,30.11,37,19.4,37S0,28.72,0,18.5,8.69,0,19.4,0,38.8,8.29,38.8,18.5Z"/><path class="cls-2" d="M8.4,22.6c-.12.06-.2.08-.23.13-.14.25-.37.29-.64.33S7,23,6.94,22.7a1.26,1.26,0,0,1,.23-.91,5,5,0,0,0,.33-.91s-.07-.12-.13-.15c-.35-.2-.67-.41-.69-.87,0-.14-.19-.31-.34-.4a7.84,7.84,0,0,0-1.19-.69c-.32-.14-.68-.16-1-.28a1.23,1.23,0,0,1-.8-.74c-.11-.28,0-.42.35-.46a1.42,1.42,0,0,1,1,.31c.47.3,1,.58,1.42.9s.6.45.9.67a5.75,5.75,0,0,0,.56.41.3.3,0,0,0,.28,0,1,1,0,0,1,.79-.34c.1,0,.23-.12.3-.21a1,1,0,0,0-.14-.91l-.86-.68-.39-.3-.49-.31-.55-.35-1.35-.9a2.65,2.65,0,0,0-.26-.21,2.81,2.81,0,0,0-.57-.3.82.82,0,0,1-.51-.82.49.49,0,0,1,.46-.37.34.34,0,0,1,.4.27,1.33,1.33,0,0,0,1.08,1c0-.17,0-.33,0-.48s.17-.4.47-.44a.85.85,0,0,1,.87.35s0,.08.05.12a4,4,0,0,0,.31.74,9.79,9.79,0,0,0,.67.8l.09-.05a8.8,8.8,0,0,1-.52-1.28,3.16,3.16,0,0,0-1-1.33,2.11,2.11,0,0,1-.19-.23.28.28,0,0,1,.09-.44.51.51,0,0,1,.42,0,5,5,0,0,1,.87.78c.12.13.13.34.2.51s.21.51.31.76l.33.76c.08.16.16.32.25.47a.31.31,0,0,0,.19.13s.12-.09.13-.15a5.12,5.12,0,0,0,.19-.67.28.28,0,0,0-.07-.19c-.39-.5-.77-1-1.19-1.48a.33.33,0,0,1,0-.48c.07-.07.29,0,.42,0,.4.12.45.52.63.81s.24.47.39.76a2.68,2.68,0,0,0,.41-1.44,3.84,3.84,0,0,1,0-.83,5.5,5.5,0,0,0-.3-1.84,3.6,3.6,0,0,1,0-.66A.39.39,0,0,1,10,9.69a.54.54,0,0,1,.57.11A1.65,1.65,0,0,1,11,11c0,.6,0,1.21,0,1.81v.34L11.4,13a3.33,3.33,0,0,0,.45-.13.85.85,0,0,0,.36-.24c.14-.19.28-.25.44-.06s.29.09.39-.05.39-.34.6-.22a.47.47,0,0,1,.13.65.93.93,0,0,0,0,1.06c.13-.3.23-.62.66-.59,0-.17,0-.32.05-.46s-.07-.29.14-.29.34,0,.44.21A1.88,1.88,0,0,1,15.31,14a.68.68,0,0,0,0,.14l.06.07a1.78,1.78,0,0,0,.26-.22.56.56,0,0,1,.68-.15.49.49,0,0,0,.5-.06c.26-.13.28-.26.09-.48a2.3,2.3,0,0,1-.73-1.74,1.44,1.44,0,0,0-.61-1.36.67.67,0,0,1-.29-.63.31.31,0,0,1,.32-.31,1.39,1.39,0,0,1,1.15.71,4.13,4.13,0,0,0,.68.77s.18,0,.24-.06a1.24,1.24,0,0,0,.17-.27.28.28,0,0,1,.48,0,5.58,5.58,0,0,0,.61.58,1.7,1.7,0,0,0,.53.19,4.15,4.15,0,0,0,.1-.56c0-.32.16-.42.48-.34a.71.71,0,0,1,.57.73c0,.16,0,.32,0,.48s.06.32.29.2a.17.17,0,0,1,.11,0c.52.06.65-.35.84-.66s.56-.91.85-1.37a.58.58,0,0,1,.19-.15c.25-.11.5.05.41.29s-.31.54-.43.82a10.92,10.92,0,0,0-.34,1.11,5.69,5.69,0,0,0-.12.7c0,.31-.08.62-.12,1l.82-.24s.05-.06.06-.1c0-.3.07-.6.12-.9a1.23,1.23,0,0,1,.16-.5c.07-.09.27-.1.41-.15,0,.11.07.22.09.33s0,.14,0,.2a5.23,5.23,0,0,1,.15.77c0,.51,0,1,0,1.53a3,3,0,0,0,.09.43l.08,0a1.16,1.16,0,0,1,.18-.2l.37-.33c.06-.06.14-.13.14-.21a.43.43,0,0,1,.32-.46.45.45,0,0,0,.3-.67,4.25,4.25,0,0,1-.15-1.7.43.43,0,0,1,.11-.26.25.25,0,0,1,.45.07.9.9,0,0,1,.13.4,5.22,5.22,0,0,0,.23,1.72c.05.18.13.19.25.08a.77.77,0,0,1,.61-.28s.1-.09.13-.16,0-.2,0-.26a.49.49,0,0,1,.26-.19c.07,0,.17.07.23.13s.1.21.18.23c.48.13.46.53.57.87s.07.52.36.66a4,4,0,0,1,.24-.51.75.75,0,0,1,.25-.25.3.3,0,0,1,.5.23,2.59,2.59,0,0,0,.67,1.55.62.62,0,0,1,.12.29,1.62,1.62,0,0,1,0,.22,1.51,1.51,0,0,0,.13.46c.12.21.27-.07.41,0s.22,0,.23.08a.36.36,0,0,1,0,.31,2.29,2.29,0,0,1-.47.29.47.47,0,0,0-.28.45c0,.52,0,1,0,1.58a1.81,1.81,0,0,1,.27-.1c.21-.06.33,0,.39.23l.47,1.52c0,.16.07.33.11.5s0,.16.07.17a.21.21,0,0,0,.2-.06.54.54,0,0,0,.15-.25c0-.18,0-.38.26-.41s.41.16.52.36a1,1,0,0,1,.08.26,1,1,0,0,0,.37-.81,3.46,3.46,0,0,1,.5-1.59,6.85,6.85,0,0,0,.44-.79,1.15,1.15,0,0,0,.08-.41.64.64,0,0,1,.81-.57c.06,0,.13.08.12.12a1.71,1.71,0,0,1-.09.64c-.16.35-.4.66-.59,1a5.73,5.73,0,0,0-.44.94,8.34,8.34,0,0,1-.28,1,3.27,3.27,0,0,1-.68,1.18,5.44,5.44,0,0,0-.71,1,2.31,2.31,0,0,1-.45.43c-.34.26-.72.48-1.05.75a2.68,2.68,0,0,0-.41.57.56.56,0,0,1,0,.08H30.3c-.24,0-.4.05-.45.33a.72.72,0,0,1-.25.34,1.19,1.19,0,0,0-.43,1.41.63.63,0,0,1,0,.24.35.35,0,0,0,.22.39.58.58,0,0,0,.58-.06c.43-.29.87-.55,1.31-.83l.1.1a1.34,1.34,0,0,1-.23.29c-.14.11-.19.2-.11.37a.38.38,0,0,1-.12.47c-.36.31-.68.65-1.06.93a2.29,2.29,0,0,1-.7.22c-.17,0-.23.08-.23.26a2,2,0,0,1-.15.52c0,.08,0,.18,0,.22a.51.51,0,0,1,0,.77,1,1,0,0,0-.24.71.72.72,0,0,1-.16.44,1.16,1.16,0,0,0-.16,1,2,2,0,0,1,.06.55c0,.09-.1.24-.17.25-.54.07-.76.52-1,.86a2.48,2.48,0,0,1-.93.81c-.12.07-.28.09-.41.16l-.77.41a2.27,2.27,0,0,1-.5.23c-.5.14-1,.28-1.52.4a5.17,5.17,0,0,1-1,.14c-.56,0-1.11,0-1.67,0-.27,0-.55.08-.83.07a4,4,0,0,1-1-.12.86.86,0,0,0-.72,0,1.3,1.3,0,0,1-1.14,0,6.87,6.87,0,0,0-1.12-.32c-.59-.09-1.15-.32-1.74-.45a2.84,2.84,0,0,1-1.46-.89.9.9,0,0,0-.63-.37.22.22,0,0,1-.15-.06,7.43,7.43,0,0,1-.82-.87,6.18,6.18,0,0,1-.47-1,6.21,6.21,0,0,1-.34-.75c-.12-.34-.19-.69-.31-1A1,1,0,0,1,9.61,30c.05-.13,0-.33-.14-.46a1.44,1.44,0,0,1-.28-1,1.68,1.68,0,0,0-.61-1.45,2.21,2.21,0,0,1-.5-1.11,3.25,3.25,0,0,1,0-1.75c.09-.32.07-.67.13-1a5.47,5.47,0,0,1,.22-.7"/><path class="cls-3" d="M27.23,29.44a7.66,7.66,0,0,1-7.83,7.47,7.66,7.66,0,0,1-7.83-7.47A7.65,7.65,0,0,1,19.4,22,7.65,7.65,0,0,1,27.23,29.44Z"/><path class="cls-4" d="M63.83,5.32A8.51,8.51,0,0,1,69.58,7.5,7.69,7.69,0,0,1,71.25,10a7.6,7.6,0,0,1-1.72,8.47,5.51,5.51,0,0,1-.54.46l.54.5a7.12,7.12,0,0,1,1.72,2.44,7.54,7.54,0,0,1,0,6,7.27,7.27,0,0,1-1.67,2.43A8.11,8.11,0,0,1,67,31.92a8.76,8.76,0,0,1-3.15.58h-13V5.32Zm0,11.76a4.24,4.24,0,0,0,3-1.21,3.93,3.93,0,0,0,0-5.79,4.25,4.25,0,0,0-3-1.22H54.58v8.22Zm0,11.87a4.25,4.25,0,0,0,3-1.22,3.86,3.86,0,0,0,1.27-2.88A3.82,3.82,0,0,0,66.87,22a4.63,4.63,0,0,0-3-1.33H54.58V29Z"/><path class="cls-4" d="M81.2,5.32V32.5H77.48V5.32Z"/><path class="cls-4" d="M86.65,19a13.55,13.55,0,0,1,1.2-5.63,14.5,14.5,0,0,1,3.27-4.61,15.71,15.71,0,0,1,16.59-3.08,16,16,0,0,1,4.84,3.08,14.67,14.67,0,0,1,3.22,4.61,13.78,13.78,0,0,1,0,11.25,14.06,14.06,0,0,1-3.22,4.57,15.37,15.37,0,0,1-4.84,3.12,15.84,15.84,0,0,1-11.8,0,14.71,14.71,0,0,1-4.79-3.12,13.9,13.9,0,0,1-3.27-4.57A13.53,13.53,0,0,1,86.65,19Zm3.83-.05a10.05,10.05,0,0,0,.91,4.21,11,11,0,0,0,2.44,3.45,11.8,11.8,0,0,0,3.61,2.33,11.79,11.79,0,0,0,8.84,0,11.85,11.85,0,0,0,3.62-2.33,11.14,11.14,0,0,0,2.44-3.45,10.09,10.09,0,0,0,0-8.42,11,11,0,0,0-2.44-3.44,11.65,11.65,0,0,0-16.07,0,10.82,10.82,0,0,0-2.44,3.44A10,10,0,0,0,90.48,18.91Z"/><path class="cls-4" d="M121.92,32.5V14.37a8.75,8.75,0,0,1,3-7,11.27,11.27,0,0,1,7.61-2.54,10.6,10.6,0,0,1,7.33,2.54,8.88,8.88,0,0,1,2.86,7V32.5h-3.73v-9h-13.3v9Zm17-17.47a6.49,6.49,0,0,0-1.81-4.9,6.33,6.33,0,0,0-4.65-1.77,6.87,6.87,0,0,0-4.93,1.77,6.29,6.29,0,0,0-1.91,4.9v4.89h13.3Z"/><path class="cls-4" d="M169.68,24.85V32.5H166V24.85A3.79,3.79,0,0,0,164.68,22a4.63,4.63,0,0,0-3-1.33h-9.27V32.5h-3.72V5.32h13a8.52,8.52,0,0,1,3.13.58,8.07,8.07,0,0,1,2.6,1.6A7.56,7.56,0,0,1,169.07,10a7.63,7.63,0,0,1,0,6,7.3,7.3,0,0,1-1.73,2.49,5.36,5.36,0,0,1-.52.46l.52.5a7,7,0,0,1,1.73,2.44A7.45,7.45,0,0,1,169.68,24.85Zm-8-7.77a4.23,4.23,0,0,0,3-1.21,3.91,3.91,0,0,0,0-5.79,4.24,4.24,0,0,0-3-1.22h-9.27v8.22Z"/><path class="cls-4" d="M175.32,32.5V14.37a8.75,8.75,0,0,1,3-7,11.27,11.27,0,0,1,7.61-2.54,10.62,10.62,0,0,1,7.34,2.54,8.9,8.9,0,0,1,2.84,7V32.5h-3.71v-9H179v9Zm17-17.47a6.5,6.5,0,0,0-1.82-4.9,6.31,6.31,0,0,0-4.65-1.77A6.87,6.87,0,0,0,181,10.13,6.33,6.33,0,0,0,179,15v4.89h13.31Z"/></g></g></svg>
